<svg xmlns="http://www.w3.org/2000/svg" width="65.418" height="56" viewBox="0 0 65.418 56">
  <defs>
    <style>
      .cls-1 {
        fill: #3d3d3d;
        opacity: 0;
      }

      .cls-2 {
        fill: #fff;
      }
    </style>
  </defs>
  <g id="Group_3028" data-name="Group 3028" transform="translate(16527.543 -7661)">
    <rect id="Rectangle_4106" data-name="Rectangle 4106" class="cls-1" width="56" height="56" transform="translate(-16523 7661)"/>
    <g id="Group_3018" data-name="Group 3018" transform="translate(-16992.479 948.981)">
      <path id="Icon_awesome-star" data-name="Icon awesome-star" class="cls-2" d="M10.043.641,7.691,5.41l-5.262.767a1.153,1.153,0,0,0-.638,1.967L5.6,11.853l-.9,5.241a1.152,1.152,0,0,0,1.671,1.214l4.708-2.474,4.708,2.474a1.153,1.153,0,0,0,1.671-1.214l-.9-5.241,3.807-3.71a1.153,1.153,0,0,0-.638-1.967L14.462,5.41,12.11.641A1.154,1.154,0,0,0,10.043.641Z" transform="translate(463.493 6721.992)"/>
      <path id="Icon_awesome-star-2" data-name="Icon awesome-star" class="cls-2" d="M10.043.641,7.691,5.41l-5.262.767a1.153,1.153,0,0,0-.638,1.967L5.6,11.853l-.9,5.241a1.152,1.152,0,0,0,1.671,1.214l4.708-2.474,4.708,2.474a1.153,1.153,0,0,0,1.671-1.214l-.9-5.241,3.807-3.71a1.153,1.153,0,0,0-.638-1.967L14.462,5.41,12.11.641A1.154,1.154,0,0,0,10.043.641Z" transform="translate(486.568 6721.992)"/>
      <path id="Icon_awesome-star-3" data-name="Icon awesome-star" class="cls-2" d="M10.043.641,7.691,5.41l-5.262.767a1.153,1.153,0,0,0-.638,1.967L5.6,11.853l-.9,5.241a1.152,1.152,0,0,0,1.671,1.214l4.708-2.474,4.708,2.474a1.153,1.153,0,0,0,1.671-1.214l-.9-5.241,3.807-3.71a1.153,1.153,0,0,0-.638-1.967L14.462,5.41,12.11.641A1.154,1.154,0,0,0,10.043.641Z" transform="translate(509.643 6721.992)"/>
      <path id="Icon_awesome-star-4" data-name="Icon awesome-star" class="cls-2" d="M10.043.641,7.691,5.41l-5.262.767a1.153,1.153,0,0,0-.638,1.967L5.6,11.853l-.9,5.241a1.152,1.152,0,0,0,1.671,1.214l4.708-2.474,4.708,2.474a1.153,1.153,0,0,0,1.671-1.214l-.9-5.241,3.807-3.71a1.153,1.153,0,0,0-.638-1.967L14.462,5.41,12.11.641A1.154,1.154,0,0,0,10.043.641Z" transform="translate(475.031 6739.763)"/>
      <path id="Icon_awesome-star-5" data-name="Icon awesome-star" class="cls-2" d="M10.043.641,7.691,5.41l-5.262.767a1.153,1.153,0,0,0-.638,1.967L5.6,11.853l-.9,5.241a1.152,1.152,0,0,0,1.671,1.214l4.708-2.474,4.708,2.474a1.153,1.153,0,0,0,1.671-1.214l-.9-5.241,3.807-3.71a1.153,1.153,0,0,0-.638-1.967L14.462,5.41,12.11.641A1.154,1.154,0,0,0,10.043.641Z" transform="translate(498.105 6739.763)"/>
    </g>
  </g>
</svg>
